/* XPM */
static char *OfficeFloorLogo[] = {
/* columns rows colors chars-per-pixel */
"80 80 206 2 ",
"   c #007BFD",
".  c #007BFE",
"X  c #007CFD",
"o  c #007EFD",
"O  c #007FFD",
"+  c #007CFE",
"@  c #007DFE",
"#  c #007CFF",
"$  c #007DFF",
"%  c #007EFE",
"&  c #007FFE",
"*  c #007EFF",
"=  c #007FFF",
"-  c #0080FD",
";  c #0080FE",
":  c #0081FE",
">  c #0080FF",
",  c #0081FF",
"<  c #0082FE",
"1  c #0083FE",
"2  c #0083FF",
"3  c #0084FE",
"4  c #0084FF",
"5  c #0085FF",
"6  c #0086FF",
"7  c #0087FF",
"8  c #0088FF",
"9  c #0089FF",
"0  c #008AFF",
"q  c #008BFF",
"w  c #028CFF",
"e  c #048CFF",
"r  c #068DFF",
"t  c #0A8FFF",
"y  c #0F91FF",
"u  c #1193FE",
"i  c #1192FF",
"p  c #1193FF",
"a  c #1293FE",
"s  c #1393FE",
"d  c #1293FF",
"f  c #1393FF",
"g  c #1394FF",
"h  c #1594FE",
"j  c #1594FF",
"k  c #1695FE",
"l  c #1695FF",
"z  c #1795FF",
"x  c #1996FF",
"c  c #1A97FE",
"v  c #1B97FE",
"b  c #1A96FF",
"n  c #1A97FF",
"m  c #1B97FF",
"M  c #1C97FF",
"N  c #1D98FE",
"B  c #1C98FF",
"V  c #1D98FF",
"C  c #1E98FF",
"Z  c #1E99FF",
"A  c #1F99FF",
"S  c #219AFF",
"D  c #249BFF",
"F  c #259CFF",
"G  c #289DFF",
"H  c #299DFF",
"J  c #299EFF",
"K  c #2B9EFF",
"L  c #37A4FE",
"P  c #37A4FF",
"I  c #3AA5FE",
"U  c #3AA5FF",
"Y  c #3BA5FF",
"T  c #3FA7FE",
"R  c #3FA7FF",
"E  c #43A9FE",
"W  c #43A9FF",
"Q  c #45AAFE",
"!  c #45AAFF",
"~  c #46ABFE",
"^  c #47ABFE",
"/  c #46AAFF",
"(  c #46ABFF",
")  c #47ABFF",
"_  c #48ACFE",
"`  c #49ACFE",
"'  c #48ACFF",
"]  c #49ACFF",
"[  c #4AACFE",
"{  c #4AACFF",
"}  c #4BADFF",
"|  c #4CADFF",
" . c #4DAEFF",
".. c #4EAEFF",
"X. c #4FAEFF",
"o. c #4FAFFF",
"O. c #5BB4FE",
"+. c #5BB4FF",
"@. c #61B7FE",
"#. c #61B7FF",
"$. c #62B7FF",
"%. c #63B8FE",
"&. c #63B8FF",
"*. c #64B8FE",
"=. c #64B8FF",
"-. c #71BEFF",
";. c #72BFFE",
":. c #72BFFF",
">. c #74C0FF",
",. c #75C0FF",
"<. c #76C0FE",
"1. c #76C0FF",
"2. c #78C1FF",
"3. c #7AC2FE",
"4. c #7BC2FE",
"5. c #7BC3FE",
"6. c #7AC2FF",
"7. c #7BC2FF",
"8. c #7BC3FF",
"9. c #7CC3FE",
"0. c #7CC3FF",
"q. c #7DC4FF",
"w. c #7EC4FF",
"e. c #7FC5FF",
"r. c #81C5FE",
"t. c #81C5FF",
"y. c #81C6FF",
"u. c #82C6FE",
"i. c #82C6FF",
"p. c #83C6FF",
"a. c #85C7FF",
"s. c #8DCBFE",
"d. c #8ECBFE",
"f. c #8ECBFF",
"g. c #90CCFE",
"h. c #90CCFF",
"j. c #98D0FE",
"k. c #98D0FF",
"l. c #9DD2FE",
"z. c #9DD2FF",
"x. c #9ED2FE",
"c. c #9ED2FF",
"v. c #9ED3FF",
"b. c #9FD3FF",
"n. c #A0D3FE",
"m. c #A0D3FF",
"M. c #A1D4FE",
"N. c #A1D4FF",
"B. c #A3D5FE",
"V. c #A2D4FF",
"C. c #A3D5FF",
"Z. c #A5D6FE",
"A. c #A5D6FF",
"S. c #A6D6FE",
"D. c #A7D7FE",
"F. c #A6D6FF",
"G. c #A7D7FF",
"H. c #A8D7FE",
"J. c #A9D7FE",
"K. c #A8D7FF",
"L. c #A9D7FF",
"P. c #AAD8FF",
"I. c #ABD8FF",
"U. c #ADD9FF",
"Y. c #AEDAFE",
"T. c #AFDAFE",
"R. c #AEDAFF",
"E. c #AFDAFF",
"W. c #B0DBFE",
"Q. c #B0DBFF",
"!. c #B2DBFE",
"~. c #B2DBFF",
"^. c #B3DCFE",
"/. c #B2DCFF",
"(. c #B3DCFF",
"). c #B5DDFE",
"_. c #B5DDFF",
"`. c #B6DEFE",
"'. c #B6DEFF",
"]. c #B9DFFE",
"[. c #B9DFFF",
"{. c #BBE0FF",
"}. c #BCE0FE",
"|. c #BDE0FE",
" X c #BCE0FF",
".X c #BDE0FF",
"XX c #BDE1FF",
"oX c #BEE1FE",
"OX c #BEE1FF",
"+X c #BFE1FF",
"@X c #C2E3FE",
"#X c #C3E3FE",
"$X c #C2E3FF",
"%X c #C3E3FF",
"&X c #C3E4FF",
"*X c #C4E4FE",
"=X c #C4E4FF",
"-X c #C6E5FF",
";X c #C8E6FF",
":X c #C9E6FF",
">X c #CAE7FF",
",X c #CDE8FF",
"<X c #CEE8FF",
"1X c #CFE9FF",
"2X c #D1EAFF",
"3X c None",
/* pixels */
"0 0 q q r t y i x M S D J J J J J J J J F J J J F J J J J J J J F J J J J J D V x z i j x V D J J J J H J J J J F J J J F J J J J J J J F S M x j y t r q q 0 0 ",
"0 0 q 0 0 0 7 0 0 7 0 0 0 0 0 0 q q 0 0 0 0 0 0 0 0 0 0 0 q 0 0 0 0 0 0 0 0 0 0 7 0 0 7 7 0 0 0 0 0 0 0 0 q 0 0 0 0 0 0 0 0 0 0 0 0 0 0 0 0 0 0 7 7 0 0 0 q q q ",
"q q q q 0 q q 0 0 0 0 q q 0 0 0 q q q q 0 0 0 q q 0 0 0 q q q q 0 0 0 q q 0 0 0 0 q q 0 0 q q q q 0 0 0 q q q q 0 0 0 q q 0 0 0 q q q 0 0 0 0 q 0 0 0 0 0 q 0 0 ",
"q 0 q r t i x x M S V S S V S V V S V V V S V S S V S V V S V V V S V S S V S M V B V V V V S V S V S V V S V V V S V S S V S V V S V S V S V V M z i t r q 0 0 ",
"r 0 0 y z J Y ) } o.o.o.o.o.o.o.o.o.o.o.o.o.o.o.o.o.o.o.o.o.o.o.o.o.o.o.o.o.o.} } ) ) ) } } o.o.o.o.o.o.o.o.o.o.o.o.o.o.o.o.o.o.o.o.o.o.o.o.o.} ) Y J x t 0 0 7 ",
"t 0 0 i J ) $.>.0.i.i.i.i.i.a.i.i.i.i.i.i.i.i.i.i.i.i.i.i.i.i.i.i.i.i.i.i.i.e.0.3.>.:.:.>.8.e.i.a.i.i.i.i.i.i.e.i.i.i.i.i.i.i.i.i.i.i.i.i.i.i.e.>.$._ J i 0 7 7 ",
"i 7 0 x Y $.a.b.I.U.U.I.I.I.L.U.I.I.D.I.I.I.I.I.I.I.I.I.I.D.I.I.I.I.I.I.I.I.L.F.N.b.b.b.N.F.D.I.L.I.I.I.I.I.I.I.I.I.I.D.I.I.I.I.I.I.I.I.I.I.U.I.b.i.$.Y x 0 7 7 ",
"i 0 0 V ) :.b. X-X:X&X X{.{. X[.{.{.{.{.{.{.{.{.{.{.{.{.{.{.{.{.{.{.{.{.{.{.{.[.{.{.{.{.{.{.{.{. X{.{.{.{.{.{.{.{.{.{.{.{.{.{.{.{.{.{.{. X&X:X-X{.b.>.) M 0 7 ; ",
"x 7 q V } e.I.-X1X>X X_.I.I.F.D.F.D.D.D.D.D.D.D.D.F.D.D.D.D.D.D.F.D.D.D.D.I.U._. X-X-X&X X{.U.I.I.D.D.D.D.D.L.F.D.D.D.D.D.D.D.D.F.F.L.I./. X:X1X-XI.0.o.V 0 ; 7 ",
"x 0 q S o.p.U.-X>X XF.g.i.8.3.3.3.e.8.8.8.8.3.3.e.3.e.8.8.8.8.8.8.8.3.3.3.i.d.N._.&X-X$X/.b.d.i.3.3.3.8.e.8.3.0.8.8.3.3.8.8.8.8.3.3.3.i.g.L.{.1X-XU.i.o.S 0 7 7 ",
"S 0 q V o.i.U.&X XF.a.&.o.~ ) ) } ~ } } } } ) } ) } } ~ ~ } } } } ~ ~ ) ) o.&.i.N.{.-X[.N.i.=.o.~ ) ) ~ ) } } _ } } ) } ) } } ~ ) ) _ o.=.a.F. X&XU.i.o.S 0 7 ; ",
"D 0 q V o.i.I. X_.g.=.Y V s i z x V B V V V V V V x V V V V V V V B z i z V Y &.d./. XU.d.&.Y V z i z V V x M M B B V V V V V B z i z V Y &.g./. XI.i.o.V 0 7 ; ",
"J 0 0 S o.i.I.{.L.i.o.V q 7 ; 7 0 0 q q q q 0 0 q q q q q q q q 0 0 7 ; 7 0 V o.i.I.{.I.i.o.V q 7 ; 7 0 q q q 0 q q 0 0 0 q q 0 7 ; 7 0 V o.i.I. XI.i.o.V q 7 7 ",
"J 0 0 V o.a.I.{.L.0._ j 7 ; = ; ; 7 7 ; 7 ; 7 7 7 ; ; 7 ; 7 7 ; 7 ; = = = 7 z ~ e.D.{.I.8.) z ; = = ; ; ; 7 7 7 7 ; 7 7 7 ; ; 7 = = = 7 z ~ 3.I.{.I.i.o.S q 7 ; ",
"J 0 0 S o.i.I.{.L.3.) i ; = = . ; ; ; ; = ; ; ; ; 7 ; ; ; ; ; ; ; ; = . = ; s ) 3.D.{.F.8.) i 7 = . = = ; ; ; ; ; ; ; ; ; ; ; ; . . = 7 s ) 3.D.{.I.i.o.V q 7 7 ",
"J 0 q V o.i.I. XF.3.) z 0 = . = 3X3X3X3X3X3X3X3X3X3X3X3X3X3X3X3X3X3X= . = 7 z ~ 8.D.{.I.8.~ z 7 = = = 3X3X3X3X3X3X3X3X3X3X3X3X3X= . = 7 z ) 3.D.{.U.i.o.S q ; ; ",
"J 0 q S o.i.I.{.D.8.~ B 0 ; ; 3X3X3X3X3X3X3X3X3X3X3X3X3X3X3X3X3X3X3X3X; ; 0 B } 8.D.{.I.3._ v 0 ; = 3X3X3X3X3X3X3X3X3X3X3X3X3X3X3X; 7 0 B ~ 8.D.{.I.i.o.V 0 7 7 ",
"J 0 0 V o.i.I.{.D.8.} V 0 7 ; 3X3X3X3X3X3X3X3X3X3X3X3X3X3X3X3X3X3X3X3X; 7 0 B ~ e.F.{.D.0.} N q 7 = 3X3X3X3X3X3X3X3X3X3X3X3X3X3X3X; ; q V } 8.D.{.I.i.o.S 0 7 ; ",
"J 0 0 S o.i.I.{.D.8.} V 0 ; ; 3X3X3X3X3X3X3X3X3X3X3X3X3X3X3X3X3X3X3X3X; 7 0 V } 3.F.{.D.0.} N q 7 ; 3X3X3X3X3X3X3X3X3X3X3X3X3X3X3X; 7 q V ~ 3.F.{.I.i.o.M 0 7 7 ",
"D 0 0 S o.e.I.{.F.3.} V q 7 ; 3X3X3X3X3X3X3X3X3X3X3X3X3X3X3X3X3X3X3X3X; ; 0 V ~ 8.D. XF.3._ N q ; ; 3X3X3X3X3X3X3X3X3X3X3X3X3X3X3X; ; q V } e.F.{.I.i.o.S 0 7 ; ",
"J q q V o.i.I.{.F.8.} V 0 7 ; 3X3X3X3X3X3X3X3X3X3X3X3X3X3X3X3X3X3X3X3X; ; q V } 8.D.{.D.0.} v q 7 = 3X3X3X3X3X3X3X3X3X3X3X3X3X3X3X; 7 0 V } 8.D.{.I.i.o.V q ; 7 ",
"J q q S o.i.I.{.F.e.~ V 0 7 ; 3X3X3X3X3X3X3X3X3X3X3X3X3X3X3X3X3X3X3X3X; 7 q V } 8.D.{.D.3._ V 0 7 ; 3X3X3X3X3X3X3X3X3X3X3X3X3X3X3X; 7 0 V ~ e.D.{.D.i.o.V q 7 7 ",
"J 0 q V o.i.I.{.D.8.} V 0 7 ; 3X3X3X3X3X3X3X3X3X3X3X3X3X3X3X3X3X3X3X3X; ; q V ) e.D.{.D.9.} N q ; ; 3X3X3X3X3X3X3X3X3X3X3X3X3X3X3X; 7 q V } 9.D.{.I.i.o.S q 7 ; ",
"J 0 q V o.i.D.{.F.3.} V q ; ; 3X3X3X3X3X3X3X3X3X3X3X3X3X3X3X3X3X3X3X3X7 7 0 V } 3.D.{.D.5.} N q 7 ; 3X3X3X3X3X3X3X3X3X3X3X3X3X3X3X; ; 0 N Q 9.D.{.I.i.o.V q 7 7 ",
"F 0 0 V o.i.I.{.D.8.~ V q 7 = 3X3X3X3X3X3X3X3X3X3X3X3X3X3X3X3X3X3X3X3X; 7 q V } 8.D.{.D.8.} V q 7 ; 3X3X3X3X3X3X3X3X3X3X3X3X3X3X3X7 7 q V } 9.D.{.I.i.o.S 0 7 ; ",
"J 0 0 S o.i.I.{.D.8.} V 0 ; ; 3X3X3X3X3X3X3X3X3X3X3X3X3X3X3X3X3X3X3X3X; ; q B } 8.D.{.D.3.} V q ; ; 3X3X3X3X3X3X3X3X3X3X3X3X3X3X3X; ; 0 B } 9.D.{.I.i.o.V 0 7 7 ",
"J 0 0 V o.i.I.{.D.8.~ V 0 7 ; 3X3X3X3X3X3X3X3X3X3X3X3X3X3X3X3X3X3X3X3X; 7 q B } 8.D.{.D.3.} x q 7 ; 3X3X3X3X3X3X3X3X3X3X3X3X3X3X3X; 7 q B Q 9.H.{.I.i.o.S 0 7 ; ",
"J 0 q S o.i.I.{.D.8.} V 0 7 ; 3X3X3X3X3X3X3X3X3X3X3X3X3X3X3X3X3X3X3X3X; ; 0 V ) 8.D.{.F.e.) V q 7 ; 3X3X3X3X3X3X3X3X3X3X3X3X3X3X3X; ; q V } 9.F.{.I.i.o.V 0 7 ; ",
"F 0 0 V o.i.I.{.D.8.~ B 0 ; = 3X3X3X3X3X3X3X3X3X3X3X3X3X3X3X3X3X3X3X3X= 7 0 x _ 8.D.{.I.3.} V q ; ; 3X3X3X3X3X3X3X3X3X3X3X3X3X3X3X; 7 q V ~ 8.D.{.I.i.o.V 0 7 7 ",
"J 0 0 S o.i.I.{.D.3.~ z 0 ; . = 3X3X3X3X3X3X3X3X3X3X3X3X3X3X3X3X3X3X= = = 7 z ) 3.F.{.D.e.} V q 7 ; 3X3X3X3X3X3X3X3X3X3X3X3X3X3X3X; ; q V } 8.D.{.I.i.o.S 0 7 ; ",
"J 0 0 V o.i.I.{.D.3.) s ; = . = ; ; ; ; ; = ; ; ; = ; ; ; = = ; ; = = . = ; i ) 3.I. XF.3.} V q 7 ; 3X3X3X3X3X3X3X3X3X3X3X3X3X3X3X; 7 q V } 8.D.{.D.i.o.S 0 7 7 ",
"J 0 0 S o.a.I.{.I.3.) s 7 ; = = 7 ; 7 ; 7 7 7 ; 7 7 7 ; 7 7 ; 7 7 ; = = = 7 j ) 3.L.{.L.0._ V q ; ; 3X3X3X3X3X3X3X3X3X3X3X3X3X3X3X; ; q B } 8.D.{.I.i.o.M 0 7 ; ",
"J 0 q S o.i.I.{.L.i.o.V 0 7 7 7 0 q q q q q q 0 q q q 0 q q q 0 0 0 7 7 ; 0 V o.i.I. XF.e.} N q 7 ; 3X3X3X3X3X3X3X3X3X3X3X3X3X3X3X= 7 0 M } 8.D.{.I.i.o.S q 7 7 ",
"D 0 q V o.e.F.{.!.s.*.Y S j i z x V V V V V V V V V V M V V V M V x z s s B P &.s.U.{.F.3.) x 0 ; ; 3X3X3X3X3X3X3X3X3X3X3X3X3X3X3Xo ; 0 M _ 3.I.{.I.i.o.V q 7 ; ",
"V 0 q V } 3.F.{._.n.i.*.o.Q ) ) } } } ~ } } } ) } } } _ } } } _ } } W Y Y ) +.8.b._. XN.:.E z 7 = = = 3X3X3X3X3X3X3X3X3X3X3X3X3X  . = 7 z ) 3.F.{.I.i.o.S 0 ; 7 ",
"x 0 0 x } 3.N.{. X_.n.d.i.0.8.8.0.3.8.8.3.3.3.e.3.3.0.0.0.3.3.e.3.3.>.:.:.>.i.k.U. X{.b.;.T u ; = . = = ; ; ; ; 7 ; ; ; = o = = .   = 7 i ) 3.F.{.I.i.o.V 0 7 7 ",
"j 7 0 V ) >.n.{.-X$X[.U.I.I.F.D.L.F.D.D.D.D.D.D.I.F.D.D.D.I.F.D.D.F.N.n.b.b.F.!. X*X{.b.-.E i 7 = = = ; 7 ; 7 ; ; 7 ; 7 7 ; 7 ; = = o ; s ) e.D.{.I.i.o.V q 7 ; ",
"j 7 0 x ) >.b.{.-X:X-X X{.{.{.{.{.{.{.{.{.{.{.{.{.{.{.{.{.{.{.{.{.{. X{.{.{. X&X:X-X{.b.:.) M q 7 ; 7 0 q q q 0 q q q 0 0 0 q 0 7 7 7 0 V o.i.I.{.I.i.o.V q 7 ; ",
"j 0 q V ) >.b.{.-X$X[.!.I.F.I.F.F.F.D.D.D.D.D.D.D.D.D.D.F.F.F.L.I.U.`.|.$X-X:X1X1X-X XF.i.O.P V j i z x V V V N V V M V V M V B z s z V Y &.s.T.{.D.e.o.V q 7 7 ",
"x 0 q V ~ 3.N.{.|./.N.s.i.e.3.3.e.e.8.8.3.3.e.8.8.8.8.8.e.8.3.0.i.d.b.U. X-X1X2X2X1X&X!.k.3.&.o.) ) ) ) } } } ^ } } _ _ } _ _ } ) ) ~ o.@.u.M.`.{.F.8.} S q 7 ; ",
"V 0 0 S } 3.F.{._.b.i.@.o.} ) ) ) } } } ~ } } ) } _ _ } _ ) ) ) o.@.5.j.!.&X1X2X2X1X-X XU.b.s.i.8.3.3.8.e.5.5.9.8.8.e.3.3.8.8.e.3.8.e.i.d.N.W.|. XN.>.} V 0 7 ; ",
"D 0 0 V o.e.F.{.U.d.&.I V s i x x M V V V V V V V M M V x z i z V Y O.u.F. X-X1X1X-X-X*X X_.U.I.I.D.D.F.F.D.D.F.D.D.D.D.D.D.F.F.I.D.F.I.U.{.*X*X Xn.>._ V 0 7 7 ",
"H 0 0 V o.i.I.{.I.i.o.V q 7 ; 7 0 0 0 q 0 0 0 q 0 0 0 0 0 7 7 ; q V ) >.b.[.-X:X&X{. X{. X X{. X{.{.{.{.{.{.{.{.{.{.{.{.{.{.{.{.{.{.{.{. X&X-X-X Xb.>.) M 0 7 ; ",
"H 0 0 S o.i.I.{.I.8.~ z 7 ; = ; ; 7 7 ; 7 7 ; 7 7 7 ; 7 ; ; = = 7 s Y :.b.{.-X X!.F.b.b.n.N.F.F.D.F.I.D.D.F.F.L.D.D.D.D.D.D.F.I.F.I.F.I./.{.&X&X{.b.>.~ V q 7 ; ",
"J 0 q V o.i.U.{.F.3.) s ; o . = o = = = = ; ; ; ; = = ; =     = 7 i Y :.n. X XU.k.i.:.:.:.:.3.0.e.0.0.0.5.5.5.0.3.3.8.3.8.8.8.e.3.8.e.i.s.N._. X{.N.3._ V 0 7 7 ",
"J 0 q S o.i.I.{.I.3.) s 7 = . . 3X3X3X3X3X3X3X3X3X3X3X3X3X  = ; 7 j ) >.F. X_.b.3.+.) E Y ) ) } _ _ | _ } } _ _ } } } } } ~ } ) ) ) ) o.&.i.N._.{.F.3.} V 0 7 ; ",
"J 0 q V o.i.I.{.F.0.} x 0 ; = 3X3X3X3X3X3X3X3X3X3X3X3X3X3X3X= - 7 x _ 3.F.{.U.s.$.Y x i i j x V V V M M N N N N V V V V V V x V z i z S Y &.s.U.{.L.e.o.M 0 7 7 ",
"J 0 0 V o.i.I.{.L.3.} V 0 7 = 3X3X3X3X3X3X3X3X3X3X3X3X3X3X3X= 7 0 V } 3.F.{.I.i.o.V q 7 7 7 7 0 q q q 0 q q q q q 0 q q q 0 0 0 7 ; 7 0 V o.i.I.{.L.i.o.S 0 7 ; ",
"J 0 0 S o.i.I.{.D.8.~ V q ; ; 3X3X3X3X3X3X3X3X3X3X3X3X3X3X3X= ; 0 V } e.I.{.F.e.) z 7 = = = ; 7 7 7 ; 7 7 ; 7 7 ; 7 7 7 ; 7 ; 7 = = = 7 j ) 3.L.[.I.i.o.V q 7 7 ",
"F 0 0 V o.i.I.{.D.8.} V q 7 ; 3X3X3X3X3X3X3X3X3X3X3X3X3X3X3X; 7 0 M _ 3.F.{.F.3.) s ; = . = ; ; = = = ; ; ; ; ; ; ; ; ; ; ; ; = = . = ; i ) 5.D. XI.a.o.S q 7 ; ",
"J 0 q S o.i.I.{.D.8.~ V q ; ; 3X3X3X3X3X3X3X3X3X3X3X3X3X3X3X; ; q V } 3.D.{.D.3.) s 7 ; = . 3X3X3X3X3X3X3X3X3X3X3X3X3X3X3X3X3X3X= = = 7 j ) 5.L.{.I.i.o.V q 7 7 ",
"J 0 q V o.e.I.{.D.8.} V q 7 ; 3X3X3X3X3X3X3X3X3X3X3X3X3X3X3X; 7 q V } 3.I.{.D.8.~ B 0 ; = 3X3X3X3X3X3X3X3X3X3X3X3X3X3X3X3X3X3X3X3X; ; 0 M _ 3.F.{.L.i.o.S 0 ; ; ",
"J 0 q S o.i.I.{.F.5.} V q ; ; 3X3X3X3X3X3X3X3X3X3X3X3X3X3X3X; 7 q V } 3.D.{.D.8.} V q 7 7 3X3X3X3X3X3X3X3X3X3X3X3X3X3X3X3X3X3X3X3X; 7 0 V ~ 8.D.{.I.i.o.V 0 7 7 ",
"J 0 0 V o.i.I.{.H.5.) B q 7 ; 3X3X3X3X3X3X3X3X3X3X3X3X3X3X3X; ; q V ~ e.F.{.D.8.~ V q ; ; 3X3X3X3X3X3X3X3X3X3X3X3X3X3X3X3X3X3X3X3X; 7 0 V } 8.D.{.I.i.o.V q ; 7 ",
"F 0 0 S o.i.I.{.D.9.} B 0 ; ; 3X3X3X3X3X3X3X3X3X3X3X3X3X3X3X; 7 0 N } 3.I.{.L.3.} M q 7 ; 3X3X3X3X3X3X3X3X3X3X3X3X3X3X3X3X3X3X3X3X; 7 0 V } 8.D.{.I.i.o.S q 7 7 ",
"J 0 0 V o.i.I.{.D.9.} V q 7 7 3X3X3X3X3X3X3X3X3X3X3X3X3X3X3X; 7 0 V } 0.F.{.F.0._ M 0 7 ; 3X3X3X3X3X3X3X3X3X3X3X3X3X3X3X3X3X3X3X3X; ; 0 B } 3.I.{.I.i.o.V q 7 ; ",
"J q q V o.i.I.{.D.9.} v 0 ; ; 3X3X3X3X3X3X3X3X3X3X3X3X3X3X3X; 7 q N } 3.F.{.D.8.~ V q ; ; 3X3X3X3X3X3X3X3X3X3X3X3X3X3X3X3X3X3X3X3X; 7 0 M } 3.F.{.I.i.o.V 0 ; 7 ",
"J q q S o.i.I.{.F.9.} V q 7 ; 3X3X3X3X3X3X3X3X3X3X3X3X3X3X3X; ; q V } 8.D.{.F.e.} V q 7 ; 3X3X3X3X3X3X3X3X3X3X3X3X3X3X3X3X3X3X3X3X; 7 0 M _ e.F.{.I.i.o.S 0 7 7 ",
"J 0 q V o.i.D.{.I.5.} V 0 7 ; 3X3X3X3X3X3X3X3X3X3X3X3X3X3X3X; 7 q V } 3.D.{.F.5.} V q ; ; 3X3X3X3X3X3X3X3X3X3X3X3X3X3X3X3X3X3X3X3X; 7 q V _ 0.F.{.I.i.o.V q 7 ; ",
"J 0 q V o.i.I.{.F.5.~ V 0 7 ; 3X3X3X3X3X3X3X3X3X3X3X3X3X3X3X= 7 q V } 3.D.{.D.5.} V q 7 ; 3X3X3X3X3X3X3X3X3X3X3X3X3X3X3X3X3X3X3X3X= 7 q V } 3.L.{.I.i.o.S q 7 ; ",
"F 0 0 V o.i.I.{.F.e.} V q ; ; 3X3X3X3X3X3X3X3X3X3X3X3X3X3X3X; ; q V } 3.D.{.D.8._ M 0 ; ; 3X3X3X3X3X3X3X3X3X3X3X3X3X3X3X3X3X3X3X3X; 7 q V } 8.D.{.D.p.o.S q 7 7 ",
"J 0 0 S o.i.I.{.F.3.~ V q 7 ; 3X3X3X3X3X3X3X3X3X3X3X3X3X3X3X; 7 q V ~ 3.D.{.D.8.} V q 7 ; 3X3X3X3X3X3X3X3X3X3X3X3X3X3X3X3X3X3X3X3X; ; q V ~ 8.D.{.I.p.o.V q 7 ; ",
"J 0 0 V o.i.I.{.D.8.} V q ; ; 3X3X3X3X3X3X3X3X3X3X3X3X3X3X3X; 7 q V ~ e.D.{.D.e._ M 0 7 ; 3X3X3X3X3X3X3X3X3X3X3X3X3X3X3X3X3X3X3X3X; 7 q V } 8.D.{.I.p.o.S 0 ; 7 ",
"J 0 q S o.i.I.{.D.8.~ B 0 7 ; 3X3X3X3X3X3X3X3X3X3X3X3X3X3X3X= ; 0 B } 3.I. XF.3.} M 0 ; ; 3X3X3X3X3X3X3X3X3X3X3X3X3X3X3X3X3X3X3X3X; ; 0 B ~ 8.D.{.I.e.o.V 0 7 7 ",
"J 0 0 S o.i.I.{.F.3.~ z 7 ; . = 3X3X3X3X3X3X3X3X3X3X3X3X3X= . = 7 j ) 3.L.[.L.3.~ z 7 ; = = 3X3X3X3X3X3X3X3X3X3X3X3X3X3X3X3X3X3X= = ; 7 z ) 3.F.{.I.i.o.V 0 7 ; ",
"J 0 0 V o.i.I.{.F.3.) i 7 = = = = ; ; ; ; ; ; 7 ; ; ; ; = = . = 7 i ) 3.L.[.F.3.) i 7 = . . = ; ; ; ; ; ; ; ; ; ; ; 7 = ; ; ; ; = . = ; i ) 3.F.{.I.i.o.S q 7 ; ",
"J 0 0 S o.i.I.{.D.e.~ z ; = = ; ; 7 7 ; 7 ; ; 7 7 ; 7 7 ; = = = 7 z ) e.L. XL.e.) z ; ; = = ; 7 7 ; 7 7 ; 7 7 7 7 ; ; 7 7 ; 7 ; = = ; 7 z ) e.F.{.I.i.o.V q 7 7 ",
"J 0 0 V o.i.I.{.I.i.o.V q 7 ; 7 0 q q 0 q q q 0 0 0 0 0 0 7 ; 7 0 V o.i.U.[.I.i.o.V 0 7 7 7 0 0 0 0 0 0 q 0 0 0 q q q q 0 0 0 0 7 ; 7 0 V o.i.I.{.I.i.o.S 0 7 ; ",
"F 0 q V o.i.I. X_.g.=.Y V z i z x V B B V V V V V V V V B z s z V Y &.s.!. X!.s.&.Y V z i x x V V N N V V B B V x V V x V V V B z i z V Y &.g./. XU.i.o.V q 7 7 ",
"S 0 q S o.i.U.&X XF.a.=.o.) ) ) } } } } ) } } ~ } ) } } ~ ~ ) ~ o.&.i.N.[.&X[.N.i.&.o.) ) ) } ~ } ) } } } } ) } } } } } } ~ } ~ ~ W ) o.&.a.L. X&XU.i.o.S q ; ; ",
"V 0 0 V o.i.U.:X>X XF.d.i.3.3.3.3.8.8.8.3.e.3.e.3.3.8.8.e.3.3.3.i.s.b._.$X-X$X/.b.g.i.3.3.3.8.e.5.5.8.8.e.8.3.e.8.8.8.8.8.8.8.8.3.3.e.i.g.L. X:X:XU.i.o.V q 7 7 ",
"x 7 0 V } e.I.-X2X>X X/.I.I.F.L.F.D.D.D.F.D.F.D.D.D.D.F.F.D.D.D.I.!._. X-X-X-X X_.U.I.L.F.F.D.D.F.F.D.F.F.D.F.F.D.D.D.D.D.D.D.D.F.I.D.I./. X:X2X-XI.0.o.V q ; 7 ",
"i 0 0 M ) :.b.[.-X-X-X X[. X X X{.{.{.{.{.{.{.{.{.{.{.{.{.{.{.{.{.{.{.{.{.{. X X{.{.{.{.{.{.{.{.{.{.{.{.{.{.{.{.{.{.{.{.{.{.{.{.{.{.{.{. X*X:X-X Xb.>.) V 0 7 ; ",
"i 7 0 z Y $.a.b.L.!.U.I.L.L.U.L.I.I.D.I.I.I.I.I.I.I.D.I.I.I.I.I.I.F.F.N.b.b.n.N.F.D.I.U.I.I.I.I.I.I.D.I.I.I.I.I.I.I.D.I.I.I.I.I.I.I.I.I.L.I.U.I.b.a.$.Y z q 7 7 ",
"t 0 0 i K _ $.:.0.i.i.i.i.a.i.i.i.i.i.i.i.i.i.i.i.i.i.i.i.i.i.i.i.e.e.>.>.:.>.>.8.e.i.i.i.i.i.i.i.i.i.i.i.i.i.i.e.p.p.p.i.i.i.i.i.i.i.i.i.i.a.0.:.$.) J y 0 7 7 ",
"r 0 0 t x K Y ) } o.o.o.o.o.o.o.o.o.o.o.o.o.o.o.o.o.o.o.o.o.o.o.o.o.} } ) ) ) } } o.o.o.o.o.o.o.o.o.o.o.o.o.o.o.o.o.o.o.o.o.o.o.o.o.o.o.o.o.o.o._ Y J x y 0 7 0 ",
"q 0 q r t i z M M S V S V S V S V V S V V S V S S V S V V S V S V V S V B V V V V V V S S V S V V V S V S V S V V A V S V S V S V S V S V S V M M x i y 0 q 0 0 ",
"q 0 q q q 0 0 0 0 0 q q q q 0 0 q q q q 0 0 q q q q q 0 q q q q 0 0 q q 0 q 0 0 0 q q q 0 0 0 q q q 0 0 q 0 q q q q 0 0 0 0 q 0 q q q q q q 0 0 0 0 q 0 q q q q ",
"0 q q 0 0 7 7 7 7 7 7 ; 7 7 7 7 ; 7 7 7 7 7 7 7 7 7 ; 7 7 7 7 7 ; 7 7 7 7 7 ; 7 7 7 7 7 7 7 7 7 7 7 7 7 7 7 7 ; 0 7 7 7 7 7 ; 7 7 7 7 ; 7 7 7 7 7 7 7 7 0 q q q ",
"0 q q 0 0 7 ; 7 ; 7 ; 7 7 ; ; 7 7 7 ; 7 ; 7 ; ; 7 ; 7 7 ; ; 7 ; 7 7 ; ; 7 ; 7 7 ; ; 7 ; ; 7 ; ; 7 ; ; 7 ; 7 ; 7 7 ; ; 7 ; 7 7 ; ; 7 ; 7 7 ; ; 7 ; 7 7 7 0 q q q "
};
